<svg id="Layer_1" data-name="Layer 1" xmlns="http://www.w3.org/2000/svg" viewBox="0 0 1000 250"><defs><style>.cls-1{fill:#fff;}</style></defs><polygon class="cls-1" points="347.22 99.21 347.22 76.39 244.83 76.39 244.83 173.51 347.22 173.51 347.22 150.69 275.48 150.69 275.48 136.36 347.22 136.36 347.22 113.54 275.48 113.54 275.48 99.21 347.22 99.21"/><polygon class="cls-1" points="477.79 76.39 363.55 76.39 363.55 99.21 405.35 99.21 405.35 173.51 435.99 173.51 435.99 99.21 477.79 99.21 477.79 76.39"/><polygon class="cls-1" points="185.37 76.39 152.54 135.54 119.71 76.39 76.5 76.39 76.5 173.51 105.74 173.51 105.74 106.28 143.99 173.51 161.09 173.51 199.34 106.28 199.34 173.51 228.58 173.51 228.58 76.39 185.37 76.39"/><path class="cls-1" d="M708.45,74.79h-5.61c-61.42,0-68.34,30.65-68.34,48v3.92c0,17.08,6.92,48.51,68.34,48.51h5.61c61.16,0,68.2-31.43,68.2-48.51v-3.92C776.65,105.44,769.48,74.79,708.45,74.79Zm36.38,50.73c0,11.22-6.65,26.08-39.25,26.08-32.86,0-39.26-15.25-39.26-26.34V123.7c0-11.09,5.87-25.43,39.26-25.43,32.86,0,39.25,14.34,39.25,25.43Z"/><path class="cls-1" d="M855,76.49H790.74v97h64.42c56.73,0,68.34-26.34,68.34-47.21v-3.91C923.5,100.61,911.24,76.49,855,76.49Zm36.65,48.64c0,9.91-4.57,25-39,25H821.13V99.44h31.56c34.95,0,39,15,39,24.91Z"/><polygon class="cls-1" points="589.88 76.49 589.88 113.54 524.67 113.54 524.67 76.49 494.29 76.49 494.29 173.51 524.67 173.51 524.67 136.36 589.88 136.36 589.88 173.51 620.26 173.51 620.26 76.49 589.88 76.49"/></svg>